<?xml version="1.0" standalone="no"?>
<!DOCTYPE svg PUBLIC "-//W3C//DTD SVG 20010904//EN"
 "http://www.w3.org/TR/2001/REC-SVG-20010904/DTD/svg10.dtd">
<svg version="1.0" xmlns="http://www.w3.org/2000/svg"
 width="512.000000pt" height="512.000000pt" viewBox="0 0 512.000000 512.000000"
 preserveAspectRatio="xMidYMid meet">

<g transform="translate(0.000000,512.000000) scale(0.100000,-0.100000)"
fill="#000000" stroke="none">
<path d="M815 4625 c-156 -29 -285 -96 -408 -214 -124 -118 -202 -264 -233
-431 -21 -117 -20 -3038 1 -3128 41 -171 175 -309 344 -354 61 -16 207 -17
2032 -17 1298 -1 1985 2 2020 9 131 25 274 131 333 248 58 114 56 60 56 1502
0 1442 2 1388 -56 1502 -15 29 -54 80 -88 114 -104 104 -212 144 -393 144
l-103 0 0 103 c0 181 -40 289 -144 393 -34 34 -85 73 -114 88 -115 58 -43 56
-1677 55 -1184 -1 -1515 -4 -1570 -14z m3092 -321 c19 -9 46 -33 61 -52 25
-33 27 -44 30 -144 l4 -108 -1521 0 -1521 0 0 -160 0 -160 1776 0 c1978 0
1816 6 1872 -68 l27 -35 0 -1337 0 -1337 -27 -35 c-57 -74 126 -68 -2048 -68
-2174 0 -1991 -6 -2048 68 l-27 35 -3 1489 c-2 1625 -5 1554 54 1670 34 67
135 168 202 202 112 57 44 54 1650 55 1356 1 1487 0 1519 -15z"/>
<path d="M2400 3120 l0 -80 -240 0 -240 0 0 -160 0 -160 80 0 80 0 0 -480 0
-480 -80 0 -80 0 0 -160 0 -160 240 0 240 0 0 -80 0 -80 160 0 160 0 0 78 0
78 69 10 c248 39 427 263 408 509 -6 83 -35 166 -83 235 l-34 50 34 50 c48 69
77 152 83 235 19 246 -160 470 -408 509 l-69 10 0 78 0 78 -160 0 -160 0 0
-80z m387 -416 c19 -9 46 -33 61 -52 22 -29 27 -46 27 -92 0 -46 -5 -63 -27
-92 -47 -61 -74 -68 -272 -68 l-176 0 0 160 0 160 176 0 c142 0 183 -3 211
-16z m0 -640 c19 -9 46 -33 61 -52 22 -29 27 -46 27 -92 0 -46 -5 -63 -27 -92
-47 -61 -74 -68 -272 -68 l-176 0 0 160 0 160 176 0 c142 0 183 -3 211 -16z"/>
<path d="M3904 2546 c-64 -20 -131 -72 -169 -129 -108 -164 -48 -380 130 -468
71 -35 198 -34 270 1 64 31 124 91 155 155 35 72 36 199 1 270 -32 63 -93 125
-155 155 -60 28 -171 36 -232 16z"/>
</g>
</svg>
